<svg xmlns="http://www.w3.org/2000/svg" xmlns:xlink="http://www.w3.org/1999/xlink" width="200" zoomAndPan="magnify" viewBox="0 0 150 37.5" height="50" preserveAspectRatio="xMidYMid meet" version="1.0"><path fill="#000000" d="M 3.660156 15.898438 L 9.460938 21.550781 L 8.097656 29.515625 L 15.234375 25.757812 L 22.371094 29.515625 L 21.007812 21.550781 L 26.808594 15.898438 L 18.816406 14.742188 L 15.234375 7.519531 L 11.652344 14.742188 Z M 3.660156 15.898438 " fill-opacity="1" fill-rule="nonzero"/><path fill="#000000" d="M 33.484375 15.898438 L 39.289062 21.550781 L 37.925781 29.515625 L 45.0625 25.757812 L 52.195312 29.515625 L 50.835938 21.550781 L 56.636719 15.898438 L 48.644531 14.742188 L 45.0625 7.519531 L 41.480469 14.742188 Z M 33.484375 15.898438 " fill-opacity="1" fill-rule="nonzero"/><path fill="#000000" d="M 63.3125 15.898438 L 69.117188 21.550781 L 67.753906 29.515625 L 74.890625 25.757812 L 82.023438 29.515625 L 80.660156 21.550781 L 86.464844 15.898438 L 78.472656 14.742188 L 74.890625 7.519531 L 71.308594 14.742188 Z M 63.3125 15.898438 " fill-opacity="1" fill-rule="nonzero"/><path fill="#000000" d="M 93.140625 15.675781 L 98.941406 21.332031 L 97.582031 29.292969 L 104.714844 25.535156 L 111.851562 29.292969 L 110.488281 21.332031 L 116.292969 15.675781 L 108.296875 14.519531 L 104.714844 7.296875 L 101.132812 14.519531 Z M 93.140625 15.675781 " fill-opacity="1" fill-rule="nonzero"/><path fill="#000000" d="M 122.96875 15.675781 L 128.769531 21.332031 L 127.410156 29.292969 L 134.542969 25.535156 L 141.679688 29.292969 L 140.316406 21.332031 L 146.121094 15.675781 L 138.125 14.519531 L 134.542969 7.296875 L 130.960938 14.519531 Z M 122.96875 15.675781 " fill-opacity="1" fill-rule="nonzero"/></svg>